#!OML:ASF F:\VICON\USERDATA\INSTALL\rory3\rory3.ASF
:FULLY-SPECIFIED
:DEGREES
956
root -2.04292 15.6449 -1.57996 20.6028 50.7186 -10.7159
lowerback 28.4112 3.52071 -2.71129
upperback 6.87488 4.09689 1.25808
thorax -8.21818 2.07555 1.5332
lowerneck 1.60644 -5.10867 -17.0902
upperneck 0.782932 -7.36081 36.5942
head 2.20822 -3.69354 15.5754
rclavicle -6.06293e-015 5.53615e-014
rhumerus 88.5081 4.65354 -60.7922
rradius 87.3445
rwrist -63.7736
rhand -33.5816 6.95397
rfingers 7.12502
rthumb -6.77568 -22.9176
lclavicle -6.06293e-015 5.53615e-014
lhumerus 76.7261 20.3716 38.7744
lradius 90.2276
lwrist 49.6039
lhand -25.7771 27.8823
lfingers 7.12502
lthumb 0.761031 57.8606
rfemur -50.4183 -12.8107 41.0566
rtibia 39.321
rfoot -19.6356 -29.9024
rtoes 8.6484
lfemur -61.4824 -23.0422 20.6534
ltibia 19.2609
lfoot 3.80442 3.17998
ltoes -3.97674
957
root -2.01562 15.6469 -1.60953 20.5504 50.7148 -10.6927
lowerback 28.4999 3.43713 -2.21996
upperback 6.78158 4.14533 1.46155
thorax -8.35484 2.09148 1.45472
lowerneck 1.65292 -5.22763 -17.0806
upperneck 0.865663 -7.56081 36.7152
head 2.2902 -3.7926 15.6207
rclavicle -1.18277e-014 -4.89756e-014
rhumerus 88.6476 4.24335 -61.0503
rradius 86.8089
rwrist -63.8801
rhand -33.493 6.17601
rfingers 7.12502
rthumb -6.69019 -23.6983
lclavicle -1.18277e-014 -4.89756e-014
lhumerus 77.1624 20.4267 38.6045
lradius 89.6773
lwrist 49.4589
lhand -25.3021 28.1227
lfingers 7.12502
lthumb 1.21979 58.0989
rfemur -50.3872 -12.9031 40.8597
rtibia 39.3954
rfoot -19.6623 -29.8418
rtoes 8.63426
lfemur -61.4378 -23.0427 20.2993
ltibia 19.2991
lfoot 3.99053 2.99218
ltoes -3.79806
958
root -1.98995 15.6494 -1.63927 20.5233 50.6928 -10.5955
lowerback 28.5293 3.38788 -1.79351
upperback 6.7666 4.22744 1.69645
thorax -8.38139 2.12435 1.4415
lowerneck 1.58032 -5.37869 -17.1055
upperneck 0.798331 -7.76402 36.7948
head 2.35773 -3.89282 15.645
rclavicle -5.75979e-014 -3.66758e-014
rhumerus 88.8399 3.90603 -61.4303
rradius 86.1245
rwrist -63.893
rhand -33.1853 5.85193
rfingers 7.12502
rthumb -6.39309 -24.0316
lclavicle -5.75979e-014 -3.66758e-014
lhumerus 77.6055 20.5409 38.4392
lradius 89.1619
lwrist 49.4338
lhand -25.0853 28.3846
lfingers 7.12502
lthumb 1.4292 58.3596
rfemur -50.3135 -12.9827 40.5997
rtibia 39.4587
rfoot -19.79 -29.762
rtoes 8.93309
lfemur -61.3553 -23.0473 19.8641
ltibia 19.3383
lfoot 4.21258 2.80259
ltoes -3.76761
959
root -1.96331 15.6536 -1.66585 20.4638 50.7334 -10.4493
lowerback 28.5937 3.32151 -1.36828
upperback 6.80414 4.29058 1.9364
thorax -8.36466 2.14907 1.44124
lowerneck 1.38147 -5.52938 -16.9341
upperneck 0.584422 -7.91079 36.7083
head 2.37415 -3.96039 15.5372
rclavicle 2.16675e-014 -1.59028e-015
rhumerus 89.1178 3.53305 -61.6494
rradius 85.6032
rwrist -63.9785
rhand -33.2988 5.9091
rfingers 7.12502
rthumb -6.50265 -23.9711
lclavicle 2.16675e-014 -1.59028e-015
lhumerus 78.1064 20.6279 38.2488
lradius 88.654
lwrist 49.4585
lhand -24.9075 28.4697
lfingers 7.12502
lthumb 1.60094 58.4434
rfemur -50.1871 -13.0931 40.2807
rtibia 39.5188
rfoot -19.7418 -29.8681
rtoes 8.87703
lfemur -61.2323 -23.0925 19.3254
ltibia 19.3976
lfoot 4.43886 2.55678
ltoes -3.8452
960
root -1.93301 15.6557 -1.69326 20.3041 50.818 -10.3537
lowerback 28.6212 3.33482 -1.11722
upperback 6.89221 4.43471 2.42184
thorax -8.30854 2.21739 1.78873
lowerneck 1.49347 -5.63368 -16.8253
upperneck 0.120986 -7.956 36.4547
head 2.22257 -4.02168 15.3773
rclavicle -3.08116e-014 -1.35174e-014
rhumerus 89.425 3.20527 -61.4365
rradius 85.3356
rwrist -63.9847
rhand -33.6066 5.55626
rfingers 7.12502
rthumb -6.79984 -24.3145
lclavicle -3.08116e-014 -1.35174e-014
lhumerus 78.563 20.718 38.3132
lradius 88.0703
lwrist 49.4477
lhand -24.7902 28.4467
lfingers 7.12502
lthumb 1.71415 58.4196
rfemur -49.9843 -13.2439 39.9622
rtibia 39.5683
rfoot -19.7038 -29.9766
rtoes 8.90627
lfemur -61.0985 -23.2416 18.8569
ltibia 19.4783
lfoot 4.6211 2.31387
ltoes -3.77638
961
root -1.90135 15.6569 -1.71994 20.1847 50.8084 -10.2608
lowerback 28.3768 3.59482 -1.44536
upperback 7.07932 4.77971 3.35609
thorax -8.10398 2.39375 2.91271
lowerneck 1.74334 -5.76499 -17.1577
upperneck -0.405879 -8.06538 36.0318
head 2.05786 -4.13467 15.2391
rclavicle -2.5842e-014 -4.53229e-014
rhumerus 89.7877 2.87809 -60.5988
rradius 85.1887
rwrist -64.2899
rhand -33.7711 4.98083
rfingers 7.12502
rthumb -6.95865 -24.8848
lclavicle -2.5842e-014 -4.53229e-014
lhumerus 78.8474 20.9615 38.8731
lradius 87.3805
lwrist 49.4527
lhand -24.8546 28.4398
lfingers 7.12502
lthumb 1.65204 58.4131
rfemur -49.7987 -13.3254 39.64
rtibia 39.6361
rfoot -19.7939 -29.9565
rtoes 9.19443
lfemur -60.9446 -23.3514 18.4221
ltibia 19.5436
lfoot 4.77592 2.13747
ltoes -3.27916
962
root -1.87105 15.6593 -1.74481 20.0239 50.8149 -10.2094
lowerback 28.3637 3.61178 -1.18984
upperback 7.13168 4.92135 3.77748
thorax -8.06837 2.46101 3.18864
lowerneck 1.68572 -5.89081 -17.0404
upperneck -0.476686 -8.22331 35.8409
head 2.0803 -4.21155 15.1035
rclavicle -7.7526e-014 -1.11319e-014
rhumerus 89.9913 2.21138 -60.2839
rradius 84.9556
rwrist -64.7573
rhand -33.7996 4.69287
rfingers 7.12502
rthumb -6.98612 -25.1718
lclavicle -7.7526e-014 -1.11319e-014
lhumerus 79.199 21.1458 38.6922
lradius 86.8083
lwrist 49.6558
lhand -24.9022 28.424
lfingers 7.12502
lthumb 1.60598 58.3977
rfemur -49.5988 -13.3925 39.3457
rtibia 39.7263
rfoot -20.0502 -29.8819
rtoes 9.97797
lfemur -60.7266 -23.3405 17.8519
ltibia 19.6202
lfoot 5.00596 1.80145
ltoes -3.07723
963
root -1.84056 15.6634 -1.77071 20.0366 50.8069 -9.92542
lowerback 28.3688 3.58483 -0.951371
upperback 7.18093 4.98856 4.07233
thorax -8.0297 2.4927 3.35858
lowerneck 1.51296 -6.01841 -16.7708
upperneck -0.491983 -8.378 35.7137
head 2.13471 -4.27235 14.961
rclavicle -1.36764e-013 8.54774e-014
rhumerus 90.233 1.53991 -60.067
rradius 84.6023
rwrist -65.2342
rhand -33.8828 4.75376
rfingers 7.12502
rthumb -7.06645 -25.1083
lclavicle -1.36764e-013 8.54774e-014
lhumerus 79.5422 21.3958 38.4308
lradius 86.3302
lwrist 50.1559
lhand -25.1078 28.2559
lfingers 7.12502
lthumb 1.40748 58.231
rfemur -49.4413 -13.4777 38.8794
rtibia 39.8559
rfoot -20.2886 -29.8854
rtoes 10.5229
lfemur -60.5387 -23.4494 17.2219
ltibia 19.6791
lfoot 5.20391 1.49195
ltoes -3.35638
964
root -1.8099 15.6656 -1.79707 20.1808 50.7918 -9.57443
lowerback 28.354 3.49489 -0.491451
upperback 7.15837 5.01373 4.16734
thorax -8.02281 2.49924 3.19147
lowerneck 1.53178 -6.18137 -16.4622
upperneck -0.667919 -8.55822 35.8212
head 2.13027 -4.37332 14.9236
rclavicle -3.4191e-014 -1.74931e-014
rhumerus 90.2922 0.931724 -60.1558
rradius 84.2561
rwrist -65.6163
rhand -34.3891 5.1304
rfingers 7.12502
rthumb -7.55519 -24.7147
lclavicle -3.4191e-014 -1.74931e-014
lhumerus 80.0295 21.5228 38.0891
lradius 85.8673
lwrist 50.7723
lhand -25.3699 28.0454
lfingers 7.12502
lthumb 1.15433 58.022
rfemur -49.3721 -13.534 38.3864
rtibia 39.9871
rfoot -20.4136 -29.9086
rtoes 10.8796
lfemur -60.4639 -23.5633 16.6468
ltibia 19.7501
lfoot 5.34902 1.27355
ltoes -3.3981
965
root -1.77875 15.6677 -1.8226 20.2023 50.8156 -9.32459
lowerback 28.3856 3.3812 0.050171
upperback 7.13566 5.03342 4.26625
thorax -8.03154 2.502 2.98212
lowerneck 1.57318 -6.34625 -16.2244
upperneck -0.805931 -8.75504 35.9549
head 2.14154 -4.48303 14.9142
rclavicle 1.16885e-013 1.82882e-014
rhumerus 90.382 0.222347 -60.1981
rradius 83.9891
rwrist -66.2191
rhand -34.9422 5.6456
rfingers 7.12502
rthumb -8.08901 -24.1796
lclavicle 1.16885e-013 1.82882e-014
lhumerus 80.5241 21.6005 37.6811
lradius 85.3687
lwrist 50.9892
lhand -25.3342 28.0071
lfingers 7.12502
lthumb 1.18882 57.9835
rfemur -49.2525 -13.6624 37.9927
rtibia 40.1296
rfoot -20.5479 -29.8742
rtoes 11.1682
lfemur -60.3112 -23.5776 15.9577
ltibia 19.8434
lfoot 5.58683 0.895751
ltoes -3.81539
966
root -1.74736 15.6698 -1.84815 20.0574 50.8496 -9.25439
lowerback 28.3958 3.3423 0.458747
upperback 7.13692 5.13694 4.58548
thorax -8.03941 2.54866 3.06778
lowerneck 1.62901 -6.4851 -16.1814
upperneck -0.974722 -8.9173 36.0188
head 2.13732 -4.57973 14.9189
rclavicle -1.01778e-013 -5.80451e-014
rhumerus 90.5183 -0.0801717 -60.3259
rradius 83.5858
rwrist -66.5105
rhand -34.8347 5.99492
rfingers 7.12502
rthumb -7.98525 -23.8342
lclavicle -1.01778e-013 -5.80451e-014
lhumerus 80.9589 21.6916 37.4294
lradius 84.7432
lwrist 50.8717
lhand -25.2629 27.943
lfingers 7.12502
lthumb 1.25766 57.919
rfemur -49.0637 -13.7214 37.6812
rtibia 40.2547
rfoot -20.6414 -29.9076
rtoes 11.1531
lfemur -60.1394 -23.5712 15.3802
ltibia 19.9937
lfoot 5.77771 0.541321
ltoes -3.86873
967
root -1.71418 15.6688 -1.87812 19.9813 50.8716 -9.06954
lowerback 28.4359 3.33917 0.796584
upperback 7.13273 5.27466 4.9601
thorax -8.08146 2.61305 3.24316
lowerneck 1.58117 -6.67037 -16.1906
upperneck -1.0495 -9.1667 36.0109
head 2.20209 -4.70445 14.8891
rclavicle -2.46493e-014 -9.46215e-014
rhumerus 90.6622 0.0514805 -60.7631
rradius 82.9171
rwrist -66.3913
rhand -34.3701 5.85163
rfingers 7.12502
rthumb -7.53682 -23.9941
lclavicle -2.46493e-014 -9.46215e-014
lhumerus 81.374 21.7858 37.297
lradius 84.1727
lwrist 50.8679
lhand -25.2083 27.9833
lfingers 7.12502
lthumb 1.31039 57.959
rfemur -48.8709 -13.7914 37.2654
rtibia 40.358
rfoot -20.5891 -30.0541
rtoes 11.0645
lfemur -60.0011 -23.6398 14.7625
ltibia 20.1898
lfoot 5.9275 0.254601
ltoes -3.58276
968
root -1.68075 15.6671 -1.90637 19.8156 50.9245 -9.01507
lowerback 28.4479 3.30222 1.25854
upperback 7.13103 5.40138 5.30964
thorax -8.09314 2.67054 3.3247
lowerneck 1.43596 -6.86651 -16.0669
upperneck -1.01652 -9.44437 35.9048
head 2.307 -4.82619 14.7774
rclavicle 5.64548e-014 2.8625e-014
rhumerus 90.8944 -0.0571256 -61.1392
rradius 82.2924
rwrist -66.4727
rhand -34.2427 5.71989
rfingers 7.12502
rthumb -7.41381 -24.1302
lclavicle 5.64548e-014 2.8625e-014
lhumerus 81.7578 21.9262 37.0982
lradius 83.7238
lwrist 51.0617
lhand -25.169 28.1271
lfingers 7.12502
lthumb 1.3483 58.1025
rfemur -48.683 -13.8842 36.983
rtibia 40.4353
rfoot -20.3245 -30.251
rtoes 10.6548
lfemur -59.8725 -23.6548 14.2029
ltibia 20.4024
lfoot 6.09901 -0.117749
ltoes -3.62145
969
root -1.6482 15.6656 -1.93214 19.5576 51.0205 -9.05486
lowerback 28.4372 3.20995 1.82488
upperback 7.14215 5.48052 5.60716
thorax -8.06102 2.7042 3.30644
lowerneck 1.30326 -7.04404 -15.88
upperneck -0.990154 -9.6901 35.8536
head 2.39777 -4.93331 14.6807
rclavicle -4.77083e-014 3.97569e-014
rhumerus 90.9994 -0.42256 -61.3919
rradius 82.0204
rwrist -66.6807
rhand -34.4515 5.69992
rfingers 7.12502
rthumb -7.61535 -24.143
lclavicle -4.77083e-014 3.97569e-014
lhumerus 82.1556 22.1185 36.7326
lradius 83.2296
lwrist 51.2416
lhand -24.8367 28.0202
lfingers 7.12502
lthumb 1.66933 57.9934
rfemur -48.4565 -13.9412 36.7428
rtibia 40.5208
rfoot -20.2323 -30.4358
rtoes 10.3238
lfemur -59.6805 -23.6085 13.6343
ltibia 20.5628
lfoot 6.37107 -0.584145
ltoes -3.28766
